<svg width="802" height="733" viewBox="0 0 802 733" fill="none" xmlns="http://www.w3.org/2000/svg">
<path fill-rule="evenodd" clip-rule="evenodd" d="M0 732.536L0 720.896H39.612C51.1478 720.896 61.9952 719.2 72.1586 715.812L72.1712 715.808C82.9485 712.44 92.7417 705.698 101.547 695.538C110.334 685.399 117.806 670.482 123.935 650.733L123.937 650.728L330.94 0L486.573 0L715.083 652.742C715.084 652.744 715.085 652.747 715.086 652.749C721.21 669.078 728.342 682.314 736.472 692.478C744.602 701.961 753.735 709.06 763.869 713.79C774.698 718.527 786.205 720.896 798.396 720.896H801.144V732.536H430.08V720.896H471.74C487.393 720.896 498.083 718.167 504.028 712.894C510.007 706.907 513.024 698.91 513.024 688.828C513.024 684.117 512.351 679.403 511.003 674.684L510.988 674.632L510.981 674.579C510.302 669.146 509.284 663.712 507.925 658.278L507.923 658.269L507.921 658.26C506.561 652.14 504.861 646.019 502.82 639.897L502.816 639.886L447.674 464.248H195.772L145.753 621.45C145.753 621.451 145.752 621.452 145.752 621.454C143.022 630.325 140.292 638.856 137.562 647.047C135.52 654.536 133.819 661.682 132.458 668.485C131.101 675.273 130.424 681.712 130.424 687.804C130.424 698.583 133.449 706.915 139.421 712.895C145.368 718.17 155.723 720.896 170.684 720.896H244.088V732.536H0ZM138.94 713.404C132.796 707.26 129.724 698.727 129.724 687.804C129.724 681.66 130.407 675.175 131.772 668.348C133.137 661.521 134.844 654.353 136.892 646.844C139.623 638.652 142.353 630.119 145.084 621.244L195.26 463.548H448.188L503.484 639.676C505.532 645.82 507.239 651.964 508.604 658.108C509.969 663.569 510.993 669.031 511.676 674.492C513.041 679.271 513.724 684.049 513.724 688.828C513.724 699.068 510.652 707.26 504.508 713.404C498.364 718.865 487.441 721.596 471.74 721.596H430.78V731.836H800.444V721.596H798.396C786.108 721.596 774.503 719.207 763.58 714.428C753.34 709.649 744.124 702.481 735.932 692.924C727.74 682.684 720.572 669.372 714.428 652.988L486.076 0.699997L331.452 0.699997L124.604 650.94C118.46 670.737 110.951 685.756 102.076 695.996C93.2013 706.236 83.3027 713.063 72.38 716.476C62.14 719.889 51.2173 721.596 39.612 721.596H0.7L0.7 731.836H243.388V721.596H170.684C155.665 721.596 145.084 718.865 138.94 713.404ZM373.436 228.028C369.34 215.057 364.22 198.673 358.076 178.876C352.615 159.079 346.812 138.599 340.668 117.436C334.664 96.0897 328.987 76.3729 323.635 58.2857C323.51 57.8629 323.385 57.441 323.26 57.02C323.143 57.4427 323.025 57.8666 322.907 58.2917C319.588 70.2251 315.951 83.1132 311.996 96.956C307.9 110.609 303.463 124.604 298.684 138.94C293.905 153.276 289.127 167.953 284.348 182.972C280.252 197.308 275.815 211.644 271.036 225.98L198.332 453.308H445.116L373.436 228.028ZM444.159 452.608L372.769 228.24L372.769 228.239C368.672 215.267 363.552 198.881 357.407 179.084L357.404 179.073L357.401 179.062C351.941 159.268 346.139 138.791 339.996 117.631L339.994 117.626C334.11 96.7032 328.539 77.3473 323.281 59.5576C320.043 71.1898 316.506 83.7201 312.669 97.1483L312.667 97.1572C308.568 110.818 304.129 124.819 299.348 139.161C294.572 153.491 289.795 168.162 285.018 183.175C280.92 197.516 276.481 211.858 271.701 226.199C271.701 226.2 271.7 226.201 271.7 226.201L199.291 452.608H444.159Z" fill="white"/>
</svg>
