<svg width="568" height="916" viewBox="0 0 568 916" fill="none" xmlns="http://www.w3.org/2000/svg">
<path fill-rule="evenodd" clip-rule="evenodd" d="M-434.218 915.752V901.12H-384.662C-370.246 901.12 -356.691 899 -343.991 894.767L-343.983 894.764L-343.975 894.762C-330.512 890.555 -318.276 882.131 -307.274 869.436C-296.296 856.769 -286.957 838.128 -279.296 813.445L-279.295 813.438L-20.5315 0L174.068 0L459.716 815.954C459.717 815.957 459.718 815.96 459.719 815.963C467.373 836.37 476.286 852.91 486.443 865.611C496.604 877.462 508.017 886.332 520.679 892.243C534.209 898.16 548.586 901.12 563.818 901.12H567.294V915.752H103.382V901.12H155.498C175.061 901.12 188.41 897.709 195.829 891.13C203.295 883.654 207.062 873.669 207.062 861.076C207.062 855.191 206.222 849.302 204.538 843.408L204.518 843.34L204.509 843.27C203.661 836.48 202.388 829.69 200.69 822.898L200.687 822.886L200.684 822.875C198.985 815.226 196.86 807.577 194.309 799.926L194.307 799.918L194.304 799.91L125.386 580.392L-189.432 580.392L-251.946 776.865C-251.947 776.867 -251.947 776.869 -251.948 776.87C-255.36 787.959 -258.772 798.623 -262.185 808.862C-264.737 818.222 -266.863 827.153 -268.564 835.656C-270.26 844.138 -271.106 852.184 -271.106 859.796C-271.106 873.261 -267.327 883.664 -259.873 891.13C-252.449 897.713 -239.519 901.12 -220.822 901.12H-129.026V915.752H-434.218ZM-260.502 891.796C-268.182 884.116 -272.022 873.449 -272.022 859.796C-272.022 852.116 -271.168 844.009 -269.462 835.476C-267.755 826.943 -265.622 817.983 -263.062 808.596C-259.648 798.356 -256.235 787.689 -252.822 776.596L-190.102 579.476L126.058 579.476L195.178 799.636C197.738 807.316 199.872 814.996 201.578 822.676C203.285 829.503 204.565 836.329 205.418 843.156C207.125 849.129 207.978 855.103 207.978 861.076C207.978 873.876 204.138 884.116 196.458 891.796C188.778 898.623 175.125 902.036 155.498 902.036H104.298V914.836H566.378V902.036H563.818C548.458 902.036 533.952 899.049 520.298 893.076C507.498 887.103 495.978 878.143 485.738 866.196C475.498 853.396 466.538 836.756 458.858 816.276L173.418 0.915955L-19.8617 0.915955L-278.422 813.716C-286.102 838.463 -295.488 857.236 -306.582 870.036C-317.675 882.836 -330.048 891.369 -343.702 895.636C-356.502 899.903 -370.155 902.036 -384.662 902.036H-433.302V914.836H-129.942V902.036H-220.822C-239.595 902.036 -252.822 898.623 -260.502 891.796ZM31.7455 285.354L31.7449 285.352C26.6243 269.136 20.2238 248.655 12.5435 223.907L12.5392 223.894L12.5353 223.88C5.70984 199.137 -1.54236 173.541 -9.22131 147.091L-9.22345 147.084C-16.5638 120.985 -23.5141 96.8357 -30.0743 74.6365C-34.1114 89.1381 -38.5203 104.755 -43.3009 121.488L-43.3043 121.499C-48.4272 138.575 -53.9766 156.077 -59.9527 174.006C-65.9233 191.917 -71.894 210.256 -77.8647 229.021C-82.9868 246.947 -88.5355 264.874 -94.5109 282.8C-94.5115 282.802 -94.5121 282.804 -94.5127 282.806L-185.007 565.76L120.966 565.76L31.7455 285.354ZM122.218 566.676L-186.262 566.676L-95.3817 282.516C-89.4083 264.596 -83.8617 246.676 -78.7417 228.756C-72.7683 209.983 -66.795 191.636 -60.8217 173.716C-54.8484 155.796 -49.3017 138.303 -44.1817 121.236C-39.246 103.961 -34.7069 87.8759 -30.5642 72.9801C-30.4095 72.4237 -30.2553 71.869 -30.1017 71.316C-29.9384 71.8668 -29.775 72.4189 -29.6113 72.9722C-22.9279 95.5609 -15.838 120.182 -8.34167 146.836C-0.661652 173.289 6.59167 198.889 13.4183 223.636C21.0983 248.383 27.4983 268.863 32.6183 285.076L122.218 566.676Z" fill="white"/>
</svg>
