<svg width="32" height="32" viewBox="0 0 32 32" fill="none" xmlns="http://www.w3.org/2000/svg">
<path d="M15.999 5.33276C13.1025 5.33276 12.7389 5.34543 11.6013 5.3972C10.4659 5.4492 9.69085 5.62895 9.0127 5.8927C8.31123 6.16511 7.71618 6.52952 7.12336 7.12256C6.53009 7.71538 6.16569 8.31043 5.89239 9.01168C5.62797 9.69005 5.44799 10.4653 5.39689 11.6003C5.346 12.7379 5.33267 13.1017 5.33267 15.9982C5.33267 18.8948 5.34556 19.2572 5.39711 20.3948C5.44933 21.5303 5.62908 22.3053 5.89261 22.9834C6.16525 23.6849 6.52965 24.28 7.12269 24.8728C7.71529 25.4661 8.31034 25.8313 9.01137 26.1038C9.68996 26.3675 10.4652 26.5473 11.6004 26.5993C12.7381 26.651 13.1014 26.6637 15.9977 26.6637C18.8945 26.6637 19.2569 26.651 20.3945 26.5993C21.53 26.5473 22.3059 26.3675 22.9845 26.1038C23.6857 25.8313 24.2799 25.4661 24.8725 24.8728C25.4657 24.28 25.8301 23.6849 26.1034 22.9837C26.3656 22.3053 26.5456 21.5301 26.5989 20.3951C26.65 19.2574 26.6634 18.8948 26.6634 15.9982C26.6634 13.1017 26.65 12.7382 26.5989 11.6005C26.5456 10.4651 26.3656 9.69005 26.1034 9.0119C25.8301 8.31043 25.4657 7.71538 24.8725 7.12256C24.2792 6.5293 23.6859 6.16489 22.9838 5.8927C22.3039 5.62895 21.5284 5.4492 20.393 5.3972C19.2553 5.34543 18.8931 5.33276 15.9957 5.33276H15.999ZM15.0422 7.25477C15.3262 7.25432 15.6431 7.25477 15.999 7.25477C18.8467 7.25477 19.1842 7.26499 20.3088 7.3161C21.3486 7.36365 21.913 7.5374 22.289 7.68339C22.7867 7.8767 23.1416 8.10778 23.5146 8.48108C23.8879 8.85437 24.119 9.20988 24.3128 9.7076C24.4587 10.0831 24.6327 10.6475 24.68 11.6874C24.7312 12.8117 24.7423 13.1494 24.7423 15.9958C24.7423 18.8421 24.7312 19.1799 24.68 20.3042C24.6325 21.3441 24.4587 21.9085 24.3128 22.284C24.1194 22.7817 23.8879 23.1361 23.5146 23.5092C23.1413 23.8825 22.7869 24.1135 22.289 24.3068C21.9135 24.4535 21.3486 24.6268 20.3088 24.6744C19.1844 24.7255 18.8467 24.7366 15.999 24.7366C13.1511 24.7366 12.8136 24.7255 11.6893 24.6744C10.6494 24.6264 10.085 24.4526 9.70885 24.3066C9.21112 24.1133 8.85561 23.8822 8.48232 23.5089C8.10903 23.1356 7.87794 22.781 7.68419 22.2831C7.5382 21.9076 7.36422 21.3432 7.31689 20.3033C7.26579 19.179 7.25557 18.8412 7.25557 15.9931C7.25557 13.145 7.26579 12.809 7.31689 11.6847C7.36444 10.6448 7.5382 10.0805 7.68419 9.70449C7.8775 9.20677 8.10903 8.85126 8.48232 8.47796C8.85561 8.10467 9.21112 7.87359 9.70885 7.67983C10.0848 7.53318 10.6494 7.35987 11.6893 7.3121C12.6732 7.26766 13.0545 7.25432 15.0422 7.2521V7.25477ZM21.6922 9.02568C20.9856 9.02568 20.4123 9.59828 20.4123 10.3051C20.4123 11.0117 20.9856 11.5849 21.6922 11.5849C22.3988 11.5849 22.972 11.0117 22.972 10.3051C22.972 9.5985 22.3988 9.02524 21.6922 9.02524V9.02568ZM15.999 10.5211C12.9743 10.5211 10.5219 12.9735 10.5219 15.9982C10.5219 19.023 12.9743 21.4743 15.999 21.4743C19.0238 21.4743 21.4753 19.023 21.4753 15.9982C21.4753 12.9735 19.0236 10.5211 15.9988 10.5211H15.999ZM15.999 12.4431C17.9624 12.4431 19.5542 14.0347 19.5542 15.9982C19.5542 17.9616 17.9624 19.5534 15.999 19.5534C14.0355 19.5534 12.4439 17.9616 12.4439 15.9982C12.4439 14.0347 14.0355 12.4431 15.999 12.4431Z" fill="white"/>
</svg>
