<svg width="36" height="51" viewBox="0 0 36 51" fill="none" xmlns="http://www.w3.org/2000/svg">
<path d="M18.2217 47.5642L15.5908 48.3582L15.8076 49.8259H21.0684L21.2852 48.3582L18.6543 47.5642L18.4385 47.4988L18.2217 47.5642ZM18.0029 22.9363C15.0025 21.5457 12.1208 21.9755 10.5732 22.4558L9.38672 22.824L18.4854 31.9226L19.0156 31.3962L25.4668 24.9949L27.0498 23.4246L24.8398 23.7195C24.0959 23.8188 23.3453 23.9109 22.5566 23.9109C21.1132 23.9109 19.5336 23.6316 18.0039 22.9363H18.0029ZM9.26172 22.6492L9.70801 22.489C11.0439 22.0119 14.4255 21.0037 18.0703 22.7107L18.0742 22.7126C20.1241 23.6567 22.2825 23.7407 23.998 23.5652C25.7163 23.3894 27.0457 22.9474 27.4844 22.783L27.6367 22.7263L34.9375 15.4255H2.03809L9.26172 22.6492ZM18.3945 32.0417L18.1748 31.822L1.74902 15.3972C1.731 15.3792 1.71886 15.362 1.71094 15.3484C1.70979 15.3464 1.70893 15.3443 1.70801 15.3425C1.71952 15.3273 1.73225 15.3156 1.74512 15.3074C1.76366 15.2956 1.78626 15.2878 1.81445 15.2878H35.1113C35.1395 15.2878 35.1621 15.2956 35.1807 15.3074C35.1871 15.3115 35.1929 15.3171 35.1992 15.323C35.2045 15.3644 35.2055 15.3965 35.2021 15.4177C35.2019 15.419 35.2014 15.4205 35.2012 15.4216L18.8008 31.823L18.5811 32.0427V47.3523L19.1162 47.5125L26.7588 49.7947L26.7754 49.7996L26.791 49.8035C26.8337 49.8141 26.8704 49.8383 26.8936 49.866C26.9158 49.8926 26.918 49.9124 26.918 49.9197C26.918 49.92 26.9175 49.9212 26.917 49.9236C26.9164 49.9263 26.9155 49.9307 26.9131 49.9363C26.9078 49.9483 26.8982 49.9638 26.8838 49.9783C26.8692 49.9928 26.8539 50.0032 26.8418 50.0085C26.8364 50.011 26.8319 50.0118 26.8291 50.0125C26.8264 50.013 26.8244 50.0134 26.8242 50.0134H10.1514C10.0968 50.0134 10.0695 49.9955 10.0605 49.988C10.0533 49.982 10.0531 49.9787 10.0527 49.9763C10.0481 49.9186 10.0621 49.882 10.0723 49.866C10.077 49.8585 10.0808 49.8553 10.082 49.8542C10.0824 49.854 10.0831 49.8537 10.085 49.8533L10.1016 49.8484L10.1191 49.8435L17.8604 47.5115L18.3945 47.3503V32.0417Z" fill="white" stroke="white" stroke-width="1.5"/>
<path fill-rule="evenodd" clip-rule="evenodd" d="M23.3846 17.6701C24.2994 17.3424 25.2072 17.2817 25.9185 17.4495L24.4881 1.25448C24.46 0.861249 24.7559 0.514793 25.1494 0.486711C25.5427 0.458287 25.8891 0.754475 25.9172 1.14771L26.0607 3.03566C29.7571 8.48551 36.9593 5.63555 32.3805 13.4703C33.2048 6.06455 28.2803 7.43225 26.3913 7.39542L27.3752 17.7029C27.5036 19.4444 26.4839 20.8574 24.7518 21.4798C23.0094 22.1042 21.2902 21.7592 20.9125 20.7073C20.5344 19.6562 21.6422 18.2971 23.3846 17.6701Z" fill="white"/>
</svg>
