<svg width="69" height="113" viewBox="0 0 69 113" fill="none" xmlns="http://www.w3.org/2000/svg">
<path d="M22.7361 0.509094C24.5347 0.379309 26.116 1.73491 26.244 3.52608L26.2439 3.52803L26.9993 13.4696L27.0091 13.6016L27.0841 13.7119C32.0073 20.9705 38.0965 25.4608 44.0569 28.7587C47.0338 30.4058 49.9821 31.7573 52.7302 33.0042C55.4859 34.2544 58.0293 35.3948 60.2314 36.63C64.6296 39.0969 67.5409 41.872 67.9862 46.4703C68.4083 50.8302 66.6304 56.9336 61.4996 66.1006C62.2229 57.521 61.3957 51.2828 59.5399 46.7638C57.5123 41.8265 54.2693 38.971 50.563 37.3723C46.876 35.7821 42.7547 35.4456 38.9679 35.4844C37.0721 35.5038 35.2475 35.6172 33.5969 35.7193C31.9381 35.8219 30.4669 35.9118 29.2482 35.888L28.6879 35.8768L28.7415 36.435L33.9215 90.7096L33.9216 90.7086C34.5541 99.3424 29.6916 106.414 21.2641 109.766L20.437 110.079C15.9206 111.697 11.4565 112.051 7.90132 111.336C4.44655 110.642 1.93349 108.963 0.950514 106.549L0.860303 106.313C-0.0526436 103.775 0.801948 100.785 3.09871 97.9644C5.38858 95.1525 9.06028 92.5854 13.5766 90.9601L13.5757 90.959C18.3186 89.2601 22.9993 88.9573 26.6338 89.8142L27.3075 89.9729L27.247 89.2839L19.7158 4.00898C19.5918 2.21309 20.9451 0.636806 22.7351 0.509022L22.7361 0.509094Z" stroke="white"/>
</svg>
