<svg width="857" height="884" viewBox="0 0 857 884" fill="none" xmlns="http://www.w3.org/2000/svg">
<path fill-rule="evenodd" clip-rule="evenodd" d="M46.8992 673.434L46.8949 673.425C15.6207 606.867 0 529.117 0 440.2C0 351.284 15.6205 273.931 46.8969 208.17L46.9012 208.162C78.989 142.382 126.729 91.4314 190.104 55.3315C254.295 18.4229 334.478 0 430.6 0C521.932 0 599.314 18.4266 662.699 55.3335C726.072 91.4332 774.209 142.781 807.094 209.353C839.977 275.118 856.4 352.477 856.4 441.4C856.4 530.323 839.977 608.08 807.097 674.643L807.094 674.647C774.206 740.424 725.668 791.77 661.499 828.667C598.113 865.574 520.731 884 429.4 884C333.277 884 253.49 865.577 190.097 828.664C126.723 791.763 78.9851 740.013 46.8992 673.434ZM661 827.8C725 791 773.4 739.8 806.2 674.2C839 607.8 855.4 530.2 855.4 441.4C855.4 352.6 839 275.4 806.2 209.8C773.4 143.4 725.4 92.2 662.2 56.2C599 19.4 521.8 1 430.6 1C334.6 1 254.6 19.4 190.6 56.2C127.4 92.2 79.8 143 47.8 208.6C16.6 274.2 1 351.4 1 440.2C1 529 16.6 606.6 47.8 673C79.8 739.4 127.4 791 190.6 827.8C253.8 864.6 333.4 883 429.4 883C520.6 883 597.8 864.6 661 827.8ZM564.076 109.383L564.073 109.375C550.523 75.8979 532.628 51.6843 510.439 36.6275L510.432 36.6227L510.425 36.6178C489.026 21.5596 462.438 14 430.6 14C397.962 14 370.163 21.5598 347.155 36.6318C324.964 51.6923 306.671 75.9099 292.322 109.387C278.773 142.066 268.788 185.962 262.394 241.111C256.799 295.464 254 362.224 254 441.4C254 520.575 256.799 587.737 262.394 642.891C268.788 698.033 278.771 742.329 292.321 775.811C306.669 808.486 324.963 832.309 347.161 847.373C369.364 862.438 396.757 870 429.4 870C461.237 870 488.233 862.441 510.439 847.373C532.633 832.312 550.526 808.494 564.074 775.822C577.625 742.343 587.21 698.047 592.805 642.899L592.806 642.892L592.807 642.885C599.201 587.735 602.4 520.576 602.4 441.4C602.4 362.223 599.201 295.465 592.807 241.117L592.806 241.109L592.805 241.101C587.21 185.95 577.624 142.057 564.076 109.383ZM565 776.2C551.4 809 533.4 833 511 848.2C488.6 863.4 461.4 871 429.4 871C396.6 871 369 863.4 346.6 848.2C324.2 833 305.8 809 291.4 776.2C277.8 742.6 267.8 698.2 261.4 643C255.8 587.8 253 520.6 253 441.4C253 362.2 255.8 295.4 261.4 241C267.8 185.8 277.8 141.8 291.4 109C305.8 75.4 324.2 51 346.6 35.8C369.8 20.6 397.8 13 430.6 13C462.6 13 489.4 20.6 511 35.8C533.4 51 551.4 75.4 565 109C578.6 141.8 588.2 185.8 593.8 241C600.2 295.4 603.4 362.2 603.4 441.4C603.4 520.6 600.2 587.8 593.8 643C588.2 698.2 578.6 742.6 565 776.2Z" fill="white"/>
</svg>
