<svg width="32" height="32" viewBox="0 0 32 32" fill="none" xmlns="http://www.w3.org/2000/svg">
<path d="M4.93614 22.8843C7.31761 23.0183 9.40011 22.4616 11.4311 20.9874C9.37949 20.6368 7.9568 19.6987 7.18359 17.7605C7.78154 17.678 8.30732 17.8327 8.92588 17.5853C6.90524 16.6986 5.59595 15.3687 5.5444 13.0697C6.18358 13.1213 6.66813 13.544 7.43102 13.4821C5.57533 11.6677 5.00831 9.68826 6.17327 7.28617C8.11143 9.513 10.3795 11.0285 13.1527 11.7398C13.3074 11.7811 13.4517 11.8223 13.6063 11.8532C14.3177 12.0182 15.1631 12.3687 15.5961 12.3172C16.3383 12.2244 15.5961 11.3687 15.7816 10.2553C16.3693 6.79132 20.1837 5.21399 23.0085 7.24494C23.8333 7.84288 24.4827 7.83257 25.2972 7.47174C25.7199 7.28617 26.1529 7.1006 26.658 6.88411C26.5446 7.87381 25.7817 8.42021 25.1735 9.15217C25.8642 9.30681 26.4209 9.11094 27.0601 8.90475C26.8436 9.6161 26.3075 10.0182 25.823 10.4099C25.3178 10.812 25.1219 11.2347 25.1013 11.8945C24.792 21.8843 13.4414 29.606 5.67843 23.4616C4.92584 22.8637 5.6578 23.4616 4.93614 22.8843Z" fill="white"/>
</svg>
